<svg width="121" height="44" viewBox="0 0 121 44" fill="none" xmlns="http://www.w3.org/2000/svg">
<g filter="url(#filter0_d_20005153_1327)">
<path d="M17.0288 13.4766V9.97656H5.72876V34.0236H17.0288V30.5236C14.7139 30.5236 12.4939 29.6256 10.8571 28.0271C9.22032 26.4286 8.30077 24.2607 8.30077 22.0001C8.30077 19.7395 9.22032 17.5715 10.8571 15.9731C12.4939 14.3746 14.7139 13.4766 17.0288 13.4766Z" fill="#B4B7C9"/>
<path d="M17.0286 13.4766V30.5236C19.3434 30.5236 21.5634 29.6256 23.2002 28.0271C24.837 26.4286 25.7565 24.2607 25.7565 22.0001C25.7565 19.7395 24.837 17.5715 23.2002 15.9731C21.5634 14.3746 19.3434 13.4766 17.0286 13.4766Z" fill="#B4B7C9"/>
<path d="M32.0981 15.6177H34.628V27.5177H32.0981V15.6177Z" fill="#B4B7C9"/>
<path d="M36.0446 23.4411C36.0446 22.585 36.3049 21.7481 36.7925 21.0366C37.2801 20.325 37.973 19.7709 38.7835 19.4444C39.594 19.1179 40.4854 19.0337 41.3449 19.2026C42.2044 19.3714 42.9932 19.7856 43.6113 20.3927C44.2294 20.9999 44.6491 21.7726 44.8171 22.6129C44.985 23.4532 44.8938 24.3233 44.5548 25.1129C44.2158 25.9024 43.6444 26.576 42.9131 27.048C42.1817 27.5201 41.3232 27.7695 40.4465 27.7646C39.8651 27.7691 39.2885 27.6601 38.7508 27.444C38.213 27.228 37.7247 26.9093 37.3147 26.5067C36.9047 26.104 36.5813 25.6254 36.3631 25.099C36.145 24.5726 36.0367 24.0089 36.0446 23.4411ZM42.3861 23.4411C42.3761 23.072 42.255 22.7139 42.0377 22.4118C41.8205 22.1095 41.5169 21.8766 41.1648 21.742C40.8127 21.6074 40.4278 21.5772 40.0583 21.6552C39.6887 21.7331 39.3508 21.9157 39.087 22.1802C38.8231 22.4446 38.6449 22.7792 38.5748 23.142C38.5046 23.5049 38.5455 23.8798 38.6924 24.22C38.8393 24.5602 39.0856 24.8507 39.4007 25.0548C39.7157 25.2591 40.0853 25.368 40.4634 25.3682C40.7209 25.3731 40.9765 25.3261 41.2145 25.2301C41.4525 25.1341 41.6676 24.9912 41.8465 24.8104C42.0253 24.6295 42.164 24.4145 42.254 24.179C42.344 23.9434 42.3832 23.6922 42.3692 23.4411H42.3861Z" fill="#B4B7C9"/>
<path d="M54.8584 19.3646V27.114C54.8584 29.8481 52.6659 31.0093 50.4481 31.0093C49.6657 31.072 48.8811 30.9202 48.1824 30.571C47.4837 30.2218 46.8986 29.6891 46.493 29.0328L48.6266 27.8305C48.7994 28.1709 49.0744 28.4517 49.4149 28.6356C49.7555 28.8195 50.1452 28.8978 50.5324 28.8599C50.779 28.8895 51.0293 28.8657 51.2654 28.7899C51.5015 28.714 51.7174 28.5883 51.8979 28.4214C52.0785 28.2546 52.2189 28.0509 52.3094 27.8249C52.3999 27.5989 52.4381 27.3561 52.4213 27.114V26.3646C52.1269 26.7132 51.7534 26.9899 51.3304 27.1729C50.9073 27.3559 50.4464 27.44 49.9842 27.4187C48.866 27.4187 47.7936 26.9849 47.0028 26.2127C46.2121 25.4405 45.7678 24.3931 45.7678 23.3011C45.7678 22.209 46.2121 21.1617 47.0028 20.3895C47.7936 19.6173 48.866 19.1834 49.9842 19.1834C50.4464 19.1621 50.9073 19.2463 51.3304 19.4292C51.7534 19.6122 52.1269 19.8889 52.4213 20.2375V19.414L54.8584 19.3646ZM52.4213 23.2764C52.4381 22.8824 52.3339 22.4924 52.122 22.1568C51.9101 21.8211 51.6002 21.555 51.2321 21.3927C50.8641 21.2304 50.4549 21.1793 50.0569 21.246C49.6589 21.3127 49.2904 21.4942 48.9989 21.767C48.7073 22.0398 48.5061 22.3916 48.4209 22.7771C48.3357 23.1626 48.3705 23.5641 48.5209 23.9301C48.6713 24.2961 48.9304 24.6097 49.2648 24.8308C49.5992 25.0518 49.9937 25.1701 50.3975 25.1705C50.661 25.189 50.9255 25.1533 51.1739 25.0659C51.4225 24.9783 51.6495 24.8409 51.8401 24.6624C52.0309 24.4839 52.1812 24.2683 52.2813 24.0296C52.3814 23.7908 52.4291 23.5342 52.4213 23.2764Z" fill="#B4B7C9"/>
<path d="M56.2835 23.4412C56.2835 22.5857 56.5434 21.7495 57.0302 21.0383C57.5171 20.3271 58.209 19.773 59.0184 19.446C59.8279 19.119 60.7185 19.0339 61.5775 19.2014C62.4366 19.3689 63.2254 19.7815 63.8443 20.3869C64.4631 20.9925 64.8841 21.7636 65.0539 22.6028C65.2238 23.442 65.1349 24.3116 64.7986 25.1015C64.4622 25.8914 63.8934 26.566 63.1643 27.0401C62.4351 27.5142 61.5783 27.7664 60.7023 27.7648C60.1198 27.7703 59.5419 27.6621 59.0027 27.4467C58.4635 27.2313 57.9737 26.9129 57.5622 26.5102C57.1506 26.1075 56.8255 25.6286 56.6059 25.1016C56.3864 24.5746 56.2768 24.0101 56.2835 23.4412ZM62.625 23.4412C62.615 23.0718 62.4936 22.7134 62.276 22.411C62.0585 22.1087 61.7543 21.8757 61.4017 21.7414C61.0491 21.6071 60.6638 21.5773 60.2941 21.656C59.9243 21.7345 59.5865 21.918 59.3229 22.1833C59.0594 22.4485 58.8819 22.7839 58.8128 23.1472C58.7435 23.5106 58.7856 23.8858 58.9338 24.2258C59.0819 24.5659 59.3296 24.8557 59.6458 25.059C59.9618 25.2621 60.3323 25.3698 60.7107 25.3683C60.9682 25.3732 61.2239 25.3262 61.4618 25.2302C61.6998 25.1342 61.9149 24.9914 62.0938 24.8105C62.2727 24.6297 62.4114 24.4146 62.5014 24.1791C62.5913 23.9435 62.6306 23.6923 62.6166 23.4412H62.625Z" fill="#B4B7C9"/>
<path d="M66.2935 17.1824C66.2935 16.8926 66.3815 16.6091 66.5464 16.368C66.7114 16.127 66.9458 15.9391 67.2201 15.8281C67.4944 15.7172 67.7962 15.6882 68.0874 15.7447C68.3785 15.8013 68.646 15.9409 68.8559 16.1459C69.0658 16.3509 69.2088 16.6121 69.2667 16.8964C69.3246 17.1808 69.2949 17.4755 69.1813 17.7434C69.0677 18.0112 68.8752 18.2402 68.6284 18.4013C68.3816 18.5623 68.0914 18.6483 67.7945 18.6483C67.3977 18.644 67.0185 18.4882 66.738 18.2142C66.4574 17.9402 66.2978 17.5699 66.2935 17.1824ZM66.538 19.3648H69.0679V27.5177H66.538V19.3648Z" fill="#B4B7C9"/>
<path d="M79.8954 23.4411C79.9237 23.9833 79.842 24.5257 79.6549 25.0369C79.4678 25.5482 79.179 26.0182 78.8052 26.42C78.4313 26.8219 77.9798 27.1476 77.4765 27.3783C76.9733 27.6091 76.4283 27.7403 75.8729 27.7646C75.4016 27.7953 74.9293 27.7216 74.4913 27.549C74.0532 27.3764 73.6607 27.1095 73.3431 26.7682V30.7952H70.8132V19.3646H73.3431V20.1305C73.6612 19.7901 74.054 19.5245 74.4921 19.3533C74.9301 19.1821 75.4022 19.11 75.8729 19.1423C76.4261 19.1666 76.9689 19.2971 77.4704 19.5263C77.9719 19.7555 78.4223 20.079 78.7958 20.4781C79.1694 20.8773 79.4587 21.3444 79.6474 21.8528C79.836 22.3612 79.9204 22.9009 79.8954 23.4411ZM77.3655 23.4411C77.3556 23.0586 77.2302 22.6875 77.0052 22.3743C76.7802 22.0611 76.4655 21.8196 76.1006 21.6804C75.7357 21.541 75.3369 21.5101 74.9539 21.5912C74.5711 21.6723 74.2213 21.8621 73.9483 22.1365C73.6753 22.411 73.4914 22.7581 73.4197 23.1342C73.3478 23.5104 73.3912 23.8988 73.5445 24.251C73.6979 24.603 73.9541 24.9031 74.2813 25.1136C74.6085 25.3241 74.992 25.4355 75.3838 25.434C75.6522 25.4452 75.9199 25.4008 76.1694 25.3038C76.419 25.2067 76.6448 25.0593 76.8319 24.8712C77.019 24.683 77.1632 24.4582 77.2552 24.2118C77.3472 23.9654 77.3848 23.7027 77.3655 23.4411Z" fill="#B4B7C9"/>
<path d="M87.5948 25.0717C87.5948 26.9493 85.9082 27.7481 84.1205 27.7481C83.3913 27.8122 82.6592 27.6613 82.0188 27.3148C81.3784 26.9683 80.8591 26.4423 80.5281 25.8046L82.7037 24.6023C82.7899 24.8961 82.9768 25.1521 83.2332 25.3275C83.4895 25.503 83.7998 25.587 84.112 25.5658C84.7108 25.5658 85.0143 25.3846 85.0143 25.0552C85.0143 24.1576 80.9076 24.6352 80.9076 21.8105C80.9076 20.0317 82.4423 19.1423 84.1795 19.1423C84.8398 19.1134 85.4958 19.2597 86.0778 19.5656C86.6598 19.8716 87.1461 20.3258 87.4851 20.8799L85.3095 21.9999C85.2133 21.7874 85.0563 21.6068 84.8573 21.4796C84.6582 21.3524 84.4257 21.2843 84.1879 21.2834C83.7494 21.2834 83.488 21.4481 83.488 21.7364C83.488 22.6752 87.5948 22.0576 87.5948 25.0717Z" fill="#B4B7C9"/>
<path d="M96.7613 19.3647V27.5177H94.2315V26.7518C93.9439 27.0909 93.5788 27.3591 93.1664 27.5351C92.7532 27.7111 92.3037 27.7897 91.8534 27.7647C90.1669 27.7647 88.7249 26.5871 88.7249 24.3883V19.3647H91.2547V24.0177C91.2345 24.2122 91.2581 24.4086 91.3239 24.5934C91.3896 24.7781 91.495 24.9468 91.6333 25.0878C91.7725 25.2287 91.9411 25.3385 92.1275 25.4098C92.3139 25.4809 92.5137 25.5117 92.7136 25.5C93.6243 25.5 94.2652 24.973 94.2652 23.853V19.3647H96.7613Z" fill="#B4B7C9"/>
<path d="M111.097 22.5107V27.5177H108.567V22.7248C108.567 21.9012 108.171 21.3907 107.37 21.3907C106.569 21.3907 106.063 21.9589 106.063 22.9224V27.5177H103.533V22.7248C103.533 21.9012 103.137 21.3907 102.335 21.3907C101.534 21.3907 101.028 21.9589 101.028 22.9224V27.5177H98.4985V19.3648H101.028V20.1142C101.291 19.7831 101.632 19.5209 102.024 19.3513C102.416 19.1816 102.845 19.1098 103.272 19.1424C103.699 19.1206 104.126 19.2079 104.509 19.3956C104.891 19.5833 105.218 19.865 105.456 20.213C105.734 19.8493 106.102 19.5604 106.525 19.3733C106.947 19.186 107.413 19.1066 107.876 19.1424C109.849 19.1424 111.097 20.4765 111.097 22.5107Z" fill="#B4B7C9"/>
<path d="M113.222 19.3154C114.247 19.3154 115.077 18.5042 115.077 17.5037C115.077 16.5031 114.247 15.6919 113.222 15.6919C112.198 15.6919 111.367 16.5031 111.367 17.5037C111.367 18.5042 112.198 19.3154 113.222 19.3154Z" fill="#B4B7C9"/>
</g>
<defs>
<filter id="filter0_d_20005153_1327" x="0" y="0" width="121" height="52" filterUnits="userSpaceOnUse" color-interpolation-filters="sRGB">
<feFlood flood-opacity="0" result="BackgroundImageFix"/>
<feColorMatrix in="SourceAlpha" type="matrix" values="0 0 0 0 0 0 0 0 0 0 0 0 0 0 0 0 0 0 127 0" result="hardAlpha"/>
<feOffset dy="4"/>
<feGaussianBlur stdDeviation="2"/>
<feComposite in2="hardAlpha" operator="out"/>
<feColorMatrix type="matrix" values="0 0 0 0 0 0 0 0 0 0 0 0 0 0 0 0 0 0 0.25 0"/>
<feBlend mode="normal" in2="BackgroundImageFix" result="effect1_dropShadow_20005153_1327"/>
<feBlend mode="normal" in="SourceGraphic" in2="effect1_dropShadow_20005153_1327" result="shape"/>
</filter>
</defs>
</svg>
