<svg width="79" height="16" viewBox="0 0 79 16" fill="none" xmlns="http://www.w3.org/2000/svg">
<path d="M0.967041 1.65152H3.715V12.7944H0.967041V1.65152ZM4.81075 8.60295C4.81075 5.84295 6.52288 4.18866 9.09106 4.18866C11.6592 4.18866 13.3714 5.84295 13.3714 8.60295C13.3714 11.3629 11.7192 13.0344 9.09106 13.0344C6.46295 13.0344 4.81075 11.4229 4.81075 8.60295ZM10.6491 8.60295C10.6491 7.08581 10.0584 6.19438 9.11674 6.19438C8.17507 6.19438 7.59295 7.05152 7.59295 8.60295C7.59295 10.1544 8.17507 11.0029 9.11674 11.0029C10.0584 11.0029 10.6662 10.1544 10.6662 8.61152L10.6491 8.60295ZM14.4671 13.3687H17.1209C17.2417 13.6547 17.4527 13.8934 17.7217 14.0481C17.9907 14.2029 18.3028 14.2653 18.6105 14.2258C19.6634 14.2258 20.2113 13.6601 20.2113 12.8201V11.2772H20.2198C19.9931 11.7577 19.6263 12.158 19.168 12.4258C18.7096 12.6936 18.181 12.8161 17.6517 12.7772C15.6399 12.7772 14.3045 11.2429 14.3045 8.60295C14.3045 5.96295 15.58 4.31723 17.7287 4.31723C18.2715 4.28818 18.8101 4.42832 19.27 4.71846C19.7299 5.00861 20.0887 5.43443 20.2969 5.93723H20.2198V4.38581H22.9421V12.7344C22.9421 14.7487 21.1615 16.0087 18.542 16.0087C16.1621 16.0001 14.6383 14.9115 14.4842 13.3772L14.4671 13.3687ZM20.2198 8.60295C20.2198 7.25724 19.6035 6.40866 18.6276 6.40866C17.6517 6.40866 17.0524 7.26581 17.0524 8.60295C17.0524 9.94009 17.6431 10.7287 18.6276 10.7287C19.612 10.7287 20.2198 10.0001 20.2198 8.60295ZM24.0293 8.60295C24.0293 5.84295 25.7414 4.18866 28.3096 4.18866C30.8778 4.18866 32.5899 5.84295 32.5899 8.60295C32.5899 11.3629 30.9292 13.0344 28.3096 13.0344C25.6901 13.0344 24.0464 11.4229 24.0464 8.60295H24.0293ZM29.8676 8.60295C29.8676 7.08581 29.2684 6.19438 28.3353 6.19438C27.4022 6.19438 26.8115 7.05152 26.8115 8.60295C26.8115 10.1544 27.3936 11.0029 28.3353 11.0029C29.277 11.0029 29.8848 10.1544 29.8848 8.61152L29.8676 8.60295ZM33.7028 2.35438C33.6908 2.07409 33.7629 1.79663 33.9097 1.55775C34.0565 1.31878 34.2714 1.12935 34.5267 1.01372C34.782 0.898005 35.0659 0.861492 35.3421 0.908806C35.6182 0.956035 35.8739 1.08495 36.0763 1.27892C36.2787 1.47298 36.4185 1.72309 36.4777 1.99729C36.5369 2.27149 36.5128 2.55718 36.4086 2.81749C36.3043 3.07789 36.1246 3.30109 35.8926 3.45838C35.6606 3.61566 35.3869 3.69983 35.1067 3.70009C34.9277 3.70463 34.7495 3.67352 34.5826 3.60863C34.4156 3.54366 34.2632 3.44612 34.1342 3.32175C34.0052 3.19738 33.9021 3.04858 33.831 2.88392C33.7599 2.71935 33.7221 2.54226 33.7199 2.36295L33.7028 2.35438ZM33.7028 4.37723H36.485V12.8287H33.7456L33.7028 4.37723ZM46.4923 8.60295C46.4923 11.3544 45.2596 12.9487 43.1623 12.9487C42.6254 12.9818 42.0912 12.8491 41.6319 12.5687C41.1726 12.2881 40.8104 11.8733 40.5941 11.3801H40.5427V15.5458H37.7948V4.40295H40.5256V5.91152H40.577C40.7858 5.40863 41.1445 4.98238 41.6041 4.69095C42.0637 4.39952 42.6018 4.25706 43.1451 4.28295C45.3024 4.26581 46.5437 5.85152 46.5437 8.61152L46.4923 8.60295ZM43.693 8.60295C43.693 7.26581 43.0681 6.40009 42.1008 6.40009C41.1334 6.40009 40.5256 7.25724 40.517 8.60295C40.5085 9.94866 41.1334 10.7972 42.1008 10.7972C43.0681 10.7972 43.7444 10.0001 43.7444 8.61152L43.693 8.60295ZM51.1836 4.18009C53.4864 4.18009 54.916 5.26866 54.9331 7.01723H52.4249C52.4249 6.40866 51.9198 6.03152 51.1664 6.03152C50.4131 6.03152 50.0536 6.32295 50.0536 6.76009C50.0536 7.19723 50.3703 7.33438 51.0038 7.46295L52.7673 7.82295C54.4794 8.18295 55.1642 8.86866 55.1642 10.1458C55.1642 11.8601 53.5805 13.0258 51.2264 13.0258C48.8722 13.0258 47.3398 11.8944 47.2286 10.1715H49.8909C49.968 10.7972 50.4645 11.1658 51.2692 11.1658C52.0739 11.1658 52.4505 10.9087 52.4505 10.4544C52.4505 10.0001 52.1937 9.92295 51.5345 9.78581L49.9423 9.45152C48.2901 9.10009 47.4255 8.23438 47.4255 6.94009C47.4768 5.26009 48.915 4.18866 51.2349 4.18866L51.1836 4.18009ZM64.3669 12.8201H61.7045V11.2344H61.6532C61.5042 11.7633 61.1798 12.2256 60.7329 12.5449C60.2861 12.8644 59.7442 13.0219 59.1963 12.9915C58.7828 13.005 58.3702 12.9307 57.9875 12.7735C57.6049 12.6164 57.259 12.3799 56.9739 12.0797C56.688 11.7793 56.4697 11.422 56.3319 11.0311C56.1941 10.6403 56.1402 10.2246 56.1744 9.81152V4.38581H58.9223V9.22009C58.9223 10.2144 59.4445 10.7544 60.3006 10.7544C60.5018 10.7528 60.6995 10.7082 60.8819 10.6235C61.0642 10.5387 61.226 10.4158 61.3561 10.2631C61.4871 10.1103 61.5838 9.93126 61.6395 9.73806C61.6943 9.54478 61.708 9.34189 61.6789 9.14295V4.38581H64.4183L64.3669 12.8201ZM65.6938 4.37723H68.3647V6.00581H68.4246C68.5719 5.48406 68.8886 5.02609 69.3235 4.70346C69.7592 4.38092 70.2891 4.21189 70.8301 4.22295C71.3737 4.17563 71.9156 4.33301 72.3488 4.66429C72.7828 4.99558 73.0773 5.47703 73.1758 6.01438H73.2956C73.4668 5.47412 73.8109 5.00561 74.2758 4.68169C74.7398 4.35769 75.2988 4.19646 75.8638 4.22295C76.2396 4.20863 76.6146 4.27395 76.963 4.41461C77.3122 4.55518 77.6273 4.76801 77.8884 5.03912C78.1495 5.31015 78.3498 5.63338 78.4773 5.98755C78.6057 6.34172 78.6571 6.71886 78.6289 7.09438V12.8287H75.8638V7.79723C75.8638 6.94009 75.4614 6.46009 74.6824 6.46009C74.5095 6.45726 74.3383 6.49189 74.1799 6.56149C74.0215 6.63118 73.8812 6.73429 73.7664 6.86372C73.6517 6.99323 73.5661 7.14589 73.5156 7.31149C73.466 7.47709 73.4523 7.65152 73.4754 7.82295V12.8287H70.8558V7.77152C70.8558 6.91438 70.4364 6.46009 69.683 6.46009C69.5084 6.45872 69.3355 6.49472 69.1762 6.56569C69.0162 6.63675 68.874 6.74106 68.7576 6.87178C68.6421 7.00249 68.5556 7.15652 68.5042 7.32349C68.452 7.49055 68.4366 7.66669 68.4589 7.84009V12.8287H65.7109L65.6938 4.37723Z" fill="#B4B7C9"/>
</svg>
